<?xml version="1.0" encoding="UTF-8"?><svg xmlns="http://www.w3.org/2000/svg" id="Layer_1" data-name="Layer 1" viewBox="0 0 512 512"><path d="M348.42,432.65c-18.61,0-35.1-3.08-49.47-9.24-14.37-6.16-25.54-14.76-33.49-25.79-7.96-11.04-11.93-23.68-11.93-37.92s3.98-26.88,11.93-37.92c7.96-11.16,19.12-19.83,33.49-25.99,14.37-6.16,30.86-9.24,49.47-9.24s35.1,3.08,49.47,9.24c14.5,6.16,25.73,14.82,33.68,25.99,7.96,11.04,11.93,23.68,11.93,37.92s-3.98,26.88-11.93,37.92c-7.96,11.04-19.18,19.63-33.68,25.79-14.37,6.16-30.86,9.24-49.47,9.24ZM348.42,411.87c13.22,0,25.02-2.18,35.42-6.54,10.39-4.49,18.48-10.65,24.25-18.48,5.77-7.96,8.66-17,8.66-27.14s-2.89-19.12-8.66-26.95c-5.77-7.96-13.86-14.12-24.25-18.48-10.39-4.49-22.2-6.74-35.42-6.74s-25.02,2.25-35.42,6.74c-10.27,4.36-18.29,10.52-24.06,18.48-5.77,7.83-8.66,16.81-8.66,26.95s2.89,19.18,8.66,27.14c5.77,7.83,13.79,13.99,24.06,18.48,10.39,4.36,22.2,6.54,35.42,6.54Z" fill="#fff" stroke-width="0"/><path d="M193.04,427.84h-26.76v-115.49h-61.21v-20.98h149.17v20.98h-61.21v115.49Z" fill="#fff" stroke-width="0"/><path d="M94.25,427.84h-26.56v-136.47h26.56v136.47Z" fill="#fff" stroke-width="0"/><path d="M349.91,225.3c-18.61,0-35.1-3.08-49.47-9.24-14.37-6.16-25.54-14.76-33.49-25.79-7.96-11.04-11.93-23.68-11.93-37.92s3.98-26.88,11.93-37.92c7.96-11.16,19.12-19.83,33.49-25.99s30.86-9.24,49.47-9.24,35.1,3.08,49.47,9.24c14.5,6.16,25.73,14.82,33.68,25.99,7.96,11.04,11.93,23.68,11.93,37.92s-3.98,26.88-11.93,37.92c-7.96,11.04-19.18,19.63-33.68,25.79-14.37,6.16-30.86,9.24-49.47,9.24ZM349.91,204.51c13.22,0,25.02-2.18,35.42-6.54,10.39-4.49,18.48-10.65,24.25-18.48,5.77-7.96,8.66-17,8.66-27.14s-2.89-19.12-8.66-26.95c-5.77-7.96-13.86-14.12-24.25-18.48-10.39-4.49-22.2-6.74-35.42-6.74s-25.02,2.25-35.42,6.74c-10.27,4.36-18.28,10.52-24.06,18.48-5.77,7.83-8.66,16.81-8.66,26.95s2.89,19.18,8.66,27.14c5.77,7.83,13.79,13.99,24.06,18.48,10.39,4.36,22.2,6.54,35.42,6.54Z" fill="#fff" stroke-width="0"/><path d="M194.53,220.49h-26.76v-115.49h-61.21v-20.98h149.17v20.98h-61.21v115.49Z" fill="#fff" stroke-width="0"/><path d="M95.73,220.49h-26.56V84.02h26.56v136.47Z" fill="#fff" stroke-width="0"/><path d="M308.54,259.64H69.09v-7.31h239.45v7.31Z" fill="#fff" stroke-width="0"/></svg>