<svg xmlns="http://www.w3.org/2000/svg" data-name="Layer 1" viewBox="0 0 758 107.8"><path d="M687.77 107.8c-13.74 0-25.92-2.27-36.54-6.82-10.61-4.54-18.86-10.89-24.74-19.03s-8.82-17.47-8.82-27.98 2.94-19.84 8.82-27.98c5.88-8.24 14.12-14.63 24.74-19.17S674.03 0 687.77 0s25.92 2.27 36.54 6.82c10.71 4.54 19.01 10.94 24.88 19.17 5.88 8.14 8.82 17.47 8.82 27.98s-2.94 19.84-8.82 27.98-14.17 14.49-24.88 19.03c-10.61 4.54-22.8 6.82-36.54 6.82m0-15.34q14.64 0 26.16-4.83c7.68-3.31 13.65-7.86 17.91-13.63 4.26-5.87 6.4-12.55 6.4-20.03s-2.13-14.11-6.4-19.88c-4.27-5.87-10.24-10.42-17.91-13.63-7.68-3.31-16.4-4.97-26.16-4.97s-18.48 1.66-26.16 4.97c-7.58 3.22-13.51 7.76-17.77 13.63-4.27 5.78-6.4 12.4-6.4 19.88s2.13 14.16 6.4 20.03c4.27 5.78 10.19 10.32 17.77 13.63q11.52 4.83 26.16 4.83m-114.78 11.79h-19.76V19.03h-45.21V3.55h110.19v15.48H573v85.22Zm-72.97 0H480.4V3.55h19.62zm-33.4-49.85H289.75V49h176.87zm-259.25 53.4c-13.74 0-25.92-2.27-36.54-6.82-10.62-4.54-18.86-10.89-24.74-19.03s-8.82-17.47-8.82-27.98 2.94-19.84 8.82-27.98c5.88-8.24 14.12-14.63 24.74-19.17S193.63 0 207.37 0s25.92 2.27 36.54 6.82c10.71 4.54 19 10.94 24.88 19.17 5.88 8.14 8.82 17.47 8.82 27.98s-2.94 19.84-8.82 27.98-14.17 14.49-24.88 19.03c-10.61 4.54-22.79 6.82-36.54 6.82m0-15.34q14.64 0 26.16-4.83c7.68-3.31 13.65-7.86 17.91-13.63 4.26-5.87 6.4-12.55 6.4-20.03s-2.13-14.11-6.4-19.88c-4.27-5.87-10.24-10.42-17.91-13.63-7.68-3.31-16.4-4.97-26.16-4.97s-18.48 1.66-26.16 4.97c-7.58 3.22-13.51 7.76-17.77 13.63-4.26 5.78-6.4 12.4-6.4 19.88s2.13 14.16 6.4 20.03c4.26 5.78 10.19 10.32 17.77 13.63q11.52 4.83 26.16 4.83M92.6 104.25H72.84V19.03H27.62V3.55h110.19v15.48H92.6zm-72.98 0H0V3.55h19.62z"/></svg>